<svg xmlns="http://www.w3.org/2000/svg" xmlns:xlink="http://www.w3.org/1999/xlink" fill="none" version="1.1" width="32" height="32" viewBox="0 0 32 32"><defs><clipPath id="master_svg0_104_159"><rect x="0" y="0" width="32" height="32" rx="0"/></clipPath></defs><g clip-path="url(#master_svg0_104_159)"><g><path d="M21.3673,22.0167L21.3665,22.0176Q21.1892,22.2221,21.0946,22.4757Q21,22.7293,21,23Q21,23.0737,21.0072,23.147Q21.0144,23.2204,21.0288,23.2926Q21.0432,23.3649,21.0646,23.4354Q21.086,23.5059,21.1142,23.574Q21.1424,23.6421,21.1771,23.7071Q21.2119,23.7721,21.2528,23.8334Q21.2937,23.8946,21.3405,23.9516Q21.3872,24.0086,21.4393,24.0607Q21.4914,24.1128,21.5484,24.1595Q21.6054,24.2063,21.6666,24.2472Q21.7279,24.2881,21.7929,24.3229Q21.8579,24.3576,21.926,24.3858Q21.9941,24.414,22.0646,24.4354Q22.1351,24.4568,22.2074,24.4712Q22.2796,24.4856,22.353,24.4928Q22.4263,24.5,22.5,24.5Q22.6613,24.5,22.8188,24.4657Q22.9764,24.4315,23.1231,24.3645Q23.2697,24.2975,23.3988,24.2009Q23.5279,24.1043,23.6335,23.9824L23.6344,23.9814L29.6449,17.0462Q30.5,16.0596,30.5,14.75393L30.5,7Q30.5,5.550255,29.4749,4.525126Q28.4497,3.5,27,3.5L15.0493,3.5Q13.57017,3.5,12.53931,4.560749L12.36307,4.742106L11.98041,5.135856L11.78941,5.332403L11.78909,5.33273Q11.68801,5.436738,11.608730000000001,5.558184Q11.52945,5.679631,11.474910000000001,5.814016Q11.42037,5.948402,11.392579999999999,6.09075Q11.364799999999999,6.23309,11.364799999999999,6.37812Q11.364799999999999,6.45182,11.37202,6.52515Q11.37924,6.59849,11.39362,6.67076Q11.40799,6.74303,11.42938,6.81355Q11.45078,6.8840699999999995,11.47898,6.95215Q11.50718,7.02023,11.54191,7.08522Q11.57665,7.1502099999999995,11.61759,7.21148Q11.658529999999999,7.27275,11.70528,7.32972Q11.752030000000001,7.38668,11.80413,7.43879Q11.85624,7.49089,11.91321,7.53764Q11.97017,7.58439,12.03144,7.62533Q12.09271,7.66627,12.1577,7.70101Q12.22269,7.73574,12.29077,7.76394Q12.35885,7.79214,12.42937,7.81354Q12.49988,7.83493,12.57216,7.8492999999999995Q12.64443,7.8636800000000004,12.71777,7.8709Q12.79111,7.87812,12.8648,7.87812Q13.01524,7.87812,13.16268,7.84825Q13.31013,7.81837,13.44871,7.75981Q13.58729,7.70124,13.71147,7.61633Q13.83566,7.53141,13.9405,7.42352L13.94098,7.42303L14.1318,7.22664L14.5145,6.83289L14.6907,6.65154Q14.838,6.5,15.0493,6.5L27,6.5Q27.2071,6.5,27.3536,6.64645Q27.5,6.79289,27.5,7L27.5,14.75393Q27.5,14.94045,27.3778,15.0814L21.3673,22.0167ZM11.19816,10.24539Q11.299240000000001,10.141390000000001,11.37851,10.01994Q11.45779,9.898489999999999,11.51233,9.764109999999999Q11.566880000000001,9.629719999999999,11.594660000000001,9.48738Q11.62245,9.345030000000001,11.62245,9.2Q11.62245,9.12631,11.61523,9.05297Q11.608,8.97964,11.593630000000001,8.90736Q11.57925,8.835090000000001,11.55786,8.764569999999999Q11.53647,8.69406,11.50827,8.62597Q11.480070000000001,8.55789,11.44533,8.4929Q11.41059,8.42792,11.36965,8.36664Q11.328710000000001,8.30537,11.28196,8.24841Q11.23522,8.19145,11.18311,8.13934Q11.131,8.08723,11.07404,8.04048Q11.01708,7.99374,10.9558,7.9528Q10.89453,7.91186,10.82954,7.87712Q10.76455,7.84238,10.69647,7.81418Q10.62839,7.78598,10.55788,7.76459Q10.487359999999999,7.7432,10.41508,7.72882Q10.34281,7.714449999999999,10.26947,7.7072199999999995Q10.19614,7.7,10.12245,7.7Q9.972010000000001,7.7,9.82456,7.72988Q9.677109999999999,7.75975,9.538540000000001,7.81832Q9.39996,7.87688,9.27577,7.9618Q9.151589999999999,8.04672,9.04674,8.15461L8.536529999999999,8.67961Q8.435459999999999,8.78361,8.35618,8.90506Q8.276900000000001,9.02651,8.22236,9.16089Q8.167819999999999,9.29528,8.14003,9.437619999999999Q8.11224,9.57997,8.11224,9.725Q8.11224,9.79869,8.11947,9.872029999999999Q8.12669,9.94536,8.14107,10.01764Q8.155439999999999,10.08991,8.176829999999999,10.16043Q8.198229999999999,10.23094,8.226420000000001,10.299019999999999Q8.25462,10.36711,8.28936,10.432089999999999Q8.3241,10.49708,8.36504,10.55835Q8.40598,10.61963,8.452729999999999,10.676590000000001Q8.49948,10.733550000000001,8.551580000000001,10.78566Q8.60369,10.837769999999999,8.66065,10.88452Q8.71762,10.93126,8.77889,10.9722Q8.840160000000001,11.01314,8.905149999999999,11.04788Q8.97014,11.08262,9.038219999999999,11.11082Q9.106300000000001,11.13902,9.17682,11.160409999999999Q9.24733,11.181799999999999,9.31961,11.19618Q9.39188,11.21055,9.46522,11.217780000000001Q9.53855,11.225,9.61224,11.225Q9.76269,11.225,9.910129999999999,11.19512Q10.05758,11.16525,10.196159999999999,11.10668Q10.33473,11.04812,10.458919999999999,10.9632Q10.58311,10.87828,10.68795,10.770389999999999L11.19816,10.24539ZM7.62673,13.92039Q7.72781,13.81638,7.8070900000000005,13.69494Q7.88636,13.57349,7.940910000000001,13.43911Q7.99545,13.30472,8.02323,13.16238Q8.051020000000001,13.02003,8.051020000000001,12.875Q8.051020000000001,12.80131,8.043800000000001,12.72797Q8.036570000000001,12.65464,8.0222,12.582360000000001Q8.007819999999999,12.51009,7.98643,12.43957Q7.96504,12.369060000000001,7.93684,12.30097Q7.90864,12.232890000000001,7.8739,12.1679Q7.83916,12.10291,7.798220000000001,12.041640000000001Q7.75728,11.98037,7.71054,11.92341Q7.6637900000000005,11.86645,7.61168,11.81434Q7.55957,11.762229999999999,7.50261,11.71548Q7.4456500000000005,11.66874,7.38438,11.627790000000001Q7.3231,11.58685,7.25812,11.55212Q7.19313,11.51738,7.12505,11.489180000000001Q7.05696,11.46098,6.98645,11.439589999999999Q6.9159299999999995,11.418199999999999,6.84366,11.40382Q6.771380000000001,11.38945,6.69805,11.38222Q6.62471,11.375,6.551019999999999,11.375Q6.40058,11.375,6.2531300000000005,11.40488Q6.1056799999999996,11.434750000000001,5.96711,11.49332Q5.82853,11.55188,5.70434,11.636800000000001Q5.58016,11.721720000000001,5.47531,11.829609999999999L3.49001,13.87248Q2.5,14.8912,2.5,16.311700000000002L2.5,24Q2.5,25.4497,3.525126,26.4749Q4.550255,27.5,6,27.5L18.5,27.5Q18.573700000000002,27.5,18.647,27.4928Q18.720399999999998,27.4856,18.7926,27.4712Q18.8649,27.4568,18.9354,27.4354Q19.0059,27.414,19.073999999999998,27.3858Q19.1421,27.3576,19.2071,27.3229Q19.272100000000002,27.2881,19.333399999999997,27.2472Q19.3946,27.2063,19.4516,27.1595Q19.5086,27.1128,19.5607,27.0607Q19.6128,27.0086,19.6595,26.9516Q19.7063,26.8946,19.7472,26.8334Q19.7881,26.7721,19.8229,26.7071Q19.857599999999998,26.6421,19.8858,26.574Q19.914,26.5059,19.9354,26.4354Q19.9568,26.3649,19.9712,26.2926Q19.985599999999998,26.2204,19.992800000000003,26.147Q20,26.0737,20,26Q20,25.9263,19.992800000000003,25.853Q19.985599999999998,25.7796,19.9712,25.7074Q19.9568,25.6351,19.9354,25.5646Q19.914,25.4941,19.8858,25.426Q19.857599999999998,25.3579,19.8229,25.2929Q19.7881,25.2279,19.7472,25.1666Q19.7063,25.1054,19.6595,25.0484Q19.6128,24.9914,19.5607,24.9393Q19.5086,24.8872,19.4516,24.8405Q19.3946,24.7937,19.333399999999997,24.7528Q19.272100000000002,24.7119,19.2071,24.6771Q19.1421,24.6424,19.073999999999998,24.6142Q19.0059,24.586,18.9354,24.5646Q18.8649,24.5432,18.7926,24.5288Q18.720399999999998,24.5144,18.647,24.5072Q18.573700000000002,24.5,18.5,24.5L6,24.5Q5.79289,24.5,5.64645,24.3536Q5.5,24.2071,5.5,24L5.5,16.311700000000002Q5.5,16.108800000000002,5.64143,15.9633L7.62578,13.92137L7.62673,13.92039L7.62673,13.92039Z" fill-rule="evenodd" fill="#393F48" fill-opacity="1"/></g><g><path d="M26.1303,10.986104Q26.3091,10.78119,26.4045,10.526562Q26.5,10.271934,26.5,10Q26.5,9.9263097,26.4928,9.852974Q26.4856,9.779639,26.4712,9.707365Q26.4568,9.63509,26.4354,9.564573Q26.414,9.494056,26.3858,9.425975Q26.3576,9.357894,26.3229,9.292905Q26.2881,9.227916,26.2472,9.166645Q26.2063,9.105373,26.1595,9.04841Q26.1128,8.99145,26.0607,8.93934Q26.0086,8.88723,25.9516,8.84048Q25.8946,8.79374,25.8334,8.7528Q25.7721,8.71186,25.7071,8.67712Q25.6421,8.64238,25.574,8.61418Q25.5059,8.58598,25.4354,8.564589999999999Q25.3649,8.5432,25.2926,8.52882Q25.2204,8.51445,25.147,8.50722Q25.0737,8.5,25,8.5Q24.8394,8.5,24.6824,8.53401Q24.5254,8.56802,24.3792,8.6345Q24.233,8.700990000000001,24.1041,8.79692Q23.9753,8.89286,23.8697,9.013896L17.9989,15.74324L4,15.74324Q3.9263097,15.74324,3.852974,15.75047Q3.779639,15.75769,3.7073650000000002,15.77207Q3.63509,15.786439999999999,3.564573,15.80783Q3.494056,15.82922,3.425975,15.857420000000001Q3.357894,15.88562,3.292905,15.920359999999999Q3.227916,15.9551,3.166645,15.99604Q3.105373,16.03698,3.04841,16.08373Q2.99145,16.13048,2.93934,16.18258Q2.8872299999999997,16.23469,2.84048,16.29165Q2.7937399999999997,16.34862,2.7527999999999997,16.40989Q2.7118599999999997,16.47116,2.67712,16.53615Q2.64238,16.60114,2.61418,16.66922Q2.58598,16.7373,2.56459,16.80782Q2.5431999999999997,16.87833,2.52882,16.95061Q2.51445,17.02288,2.5072200000000002,17.09622Q2.5,17.16955,2.5,17.24324Q2.5,17.31693,2.5072200000000002,17.39027Q2.51445,17.4636,2.52882,17.53588Q2.5431999999999997,17.608150000000002,2.56459,17.67867Q2.58598,17.74919,2.61418,17.81727Q2.64238,17.88535,2.67712,17.95034Q2.7118599999999997,18.01533,2.7527999999999997,18.0766Q2.7937399999999997,18.13787,2.84048,18.19483Q2.8872299999999997,18.2518,2.93934,18.3039Q2.99145,18.356009999999998,3.04841,18.40276Q3.105373,18.44951,3.166645,18.49045Q3.227916,18.531390000000002,3.292905,18.56613Q3.357894,18.60086,3.425975,18.629060000000003Q3.494056,18.65726,3.564573,18.678649999999998Q3.63509,18.700049999999997,3.7073650000000002,18.71442Q3.779639,18.7288,3.852974,18.73602Q3.9263097,18.74324,4,18.74324L17.1809,18.74324L17.1809,26Q17.1809,26.0737,17.1881,26.147Q17.1953,26.2204,17.209699999999998,26.2926Q17.224,26.3649,17.2454,26.4354Q17.2668,26.5059,17.295,26.574Q17.3232,26.6421,17.358,26.7071Q17.392699999999998,26.7721,17.4336,26.8334Q17.474600000000002,26.8946,17.5213,26.9516Q17.5681,27.0086,17.6202,27.0607Q17.6723,27.1128,17.729300000000002,27.1595Q17.7862,27.2063,17.8475,27.2472Q17.9088,27.2881,17.9738,27.3229Q18.0387,27.3576,18.1068,27.3858Q18.1749,27.414,18.2454,27.4354Q18.3159,27.4568,18.388199999999998,27.4712Q18.4605,27.4856,18.5338,27.4928Q18.6072,27.5,18.6809,27.5Q18.7545,27.5,18.8279,27.4928Q18.9012,27.4856,18.9735,27.4712Q19.0458,27.4568,19.116300000000003,27.4354Q19.186799999999998,27.414,19.2549,27.3858Q19.323,27.3576,19.387900000000002,27.3229Q19.4529,27.2881,19.514200000000002,27.2472Q19.575499999999998,27.2063,19.6324,27.1595Q19.6894,27.1128,19.741500000000002,27.0607Q19.793599999999998,27.0086,19.840400000000002,26.9516Q19.8871,26.8946,19.9281,26.8334Q19.969,26.7721,20.0037,26.7071Q20.0385,26.6421,20.0667,26.574Q20.0949,26.5059,20.1163,26.4354Q20.1377,26.3649,20.152,26.2926Q20.1664,26.2204,20.1736,26.147Q20.1809,26.0737,20.1809,26L20.1809,17.80559L26.1303,10.986104L26.1303,10.986104Z" fill-rule="evenodd" fill="#393F48" fill-opacity="1"/></g><g><path d="M9,20L14,20Q14.07369,20,14.14703,20.00722Q14.22036,20.01445,14.292629999999999,20.02882Q14.36491,20.0432,14.43543,20.06459Q14.505939999999999,20.08598,14.57402,20.11418Q14.642109999999999,20.14238,14.70709,20.17712Q14.772079999999999,20.21186,14.83335,20.2528Q14.89463,20.29374,14.95159,20.34048Q15.00855,20.38723,15.06066,20.43934Q15.112770000000001,20.49145,15.159510000000001,20.54841Q15.20626,20.605373,15.2472,20.666645Q15.28814,20.727916,15.32288,20.792905Q15.35762,20.857894,15.385819999999999,20.925975Q15.41402,20.994056,15.435410000000001,21.064573Q15.456800000000001,21.13509,15.47118,21.207365Q15.48555,21.279639,15.49278,21.352974Q15.5,21.4263097,15.5,21.5Q15.5,21.5736903,15.49278,21.647026Q15.48555,21.720361,15.47118,21.792635Q15.456800000000001,21.86491,15.435410000000001,21.935427Q15.41402,22.005944,15.385819999999999,22.074025Q15.35762,22.142106,15.32288,22.207095Q15.28814,22.272084,15.2472,22.333355Q15.20626,22.394627,15.159510000000001,22.45159Q15.112770000000001,22.50855,15.06066,22.56066Q15.00855,22.61277,14.95159,22.65952Q14.89463,22.70626,14.83335,22.7472Q14.772079999999999,22.78814,14.70709,22.82288Q14.642109999999999,22.85762,14.57402,22.88582Q14.505939999999999,22.91402,14.43543,22.93541Q14.36491,22.9568,14.292629999999999,22.97118Q14.22036,22.98555,14.14703,22.99278Q14.07369,23,14,23L9,23Q8.9263097,23,8.852974,22.99278Q8.779639,22.98555,8.707365,22.97118Q8.63509,22.9568,8.564573,22.93541Q8.494056,22.91402,8.425975,22.88582Q8.357894,22.85762,8.292905,22.82288Q8.227916,22.78814,8.166645,22.7472Q8.105373,22.70626,8.04841,22.65952Q7.99145,22.61277,7.93934,22.56066Q7.88723,22.50855,7.8404799999999994,22.45159Q7.79374,22.394627,7.7528,22.333355Q7.71186,22.272084,7.67712,22.207095Q7.64238,22.142106,7.61418,22.074025Q7.58598,22.005944,7.56459,21.935427Q7.5432,21.86491,7.52882,21.792635Q7.51445,21.720361,7.50722,21.647026Q7.5,21.5736903,7.5,21.5Q7.5,21.4263097,7.50722,21.352974Q7.51445,21.279639,7.52882,21.207365Q7.5432,21.13509,7.56459,21.064573Q7.58598,20.994056,7.61418,20.925975Q7.64238,20.857894,7.67712,20.792905Q7.71186,20.727916,7.7528,20.666645Q7.79374,20.605373,7.8404799999999994,20.54841Q7.88723,20.49145,7.93934,20.43934Q7.99145,20.38723,8.04841,20.34048Q8.105373,20.29374,8.166645,20.2528Q8.227916,20.21186,8.292905,20.17712Q8.357894,20.14238,8.425975,20.11418Q8.494056,20.08598,8.564573,20.06459Q8.63509,20.0432,8.707365,20.02882Q8.779639,20.01445,8.852974,20.00722Q8.9263097,20,9,20Z" fill-rule="evenodd" fill="#393F48" fill-opacity="1"/></g></g></svg>