<svg xmlns="http://www.w3.org/2000/svg" xmlns:xlink="http://www.w3.org/1999/xlink" fill="none" version="1.1" width="32" height="32" viewBox="0 0 32 32"><defs><clipPath id="master_svg0_104_169"><rect x="0" y="0" width="32" height="32" rx="0"/></clipPath></defs><g clip-path="url(#master_svg0_104_169)"><g><path d="M16.5,20Q16.5,19.9263097,16.50722,19.852974Q16.51445,19.779639,16.52882,19.707365Q16.5432,19.63509,16.56459,19.564573Q16.58598,19.494056,16.61418,19.425975Q16.64238,19.357894,16.67712,19.292905Q16.71186,19.227916,16.7528,19.166645Q16.79374,19.105373,16.84048,19.04841Q16.88723,18.99145,16.93934,18.93934Q16.99145,18.88723,17.04841,18.84048Q17.105373,18.79374,17.166645,18.7528Q17.227916,18.71186,17.292905,18.67712Q17.357894,18.64238,17.425975,18.61418Q17.494056,18.58598,17.564573,18.56459Q17.63509,18.5432,17.707365,18.52882Q17.779639,18.51445,17.852974,18.50722Q17.9263097,18.5,18,18.5Q18.0736903,18.5,18.147026,18.50722Q18.220361,18.51445,18.292635,18.52882Q18.36491,18.5432,18.435427,18.56459Q18.505944,18.58598,18.574025,18.61418Q18.642106,18.64238,18.707095,18.67712Q18.772084,18.71186,18.833355,18.7528Q18.894627,18.79374,18.95159,18.84048Q19.00855,18.88723,19.06066,18.93934Q19.11277,18.99145,19.15952,19.04841Q19.20626,19.105373,19.2472,19.166645Q19.28814,19.227916,19.32288,19.292905Q19.35762,19.357894,19.38582,19.425975Q19.41402,19.494056,19.43541,19.564573Q19.4568,19.63509,19.47118,19.707365Q19.48555,19.779639,19.49278,19.852974Q19.5,19.9263097,19.5,20L19.5,27Q19.5,27.07369,19.49278,27.14703Q19.48555,27.22036,19.47118,27.29263Q19.4568,27.364910000000002,19.43541,27.43543Q19.41402,27.50594,19.38582,27.57402Q19.35762,27.64211,19.32288,27.70709Q19.28814,27.77208,19.2472,27.83335Q19.20626,27.89463,19.15952,27.95159Q19.11277,28.00855,19.06066,28.06066Q19.00855,28.112769999999998,18.95159,28.15952Q18.894627,28.20626,18.833355,28.2472Q18.772084,28.28814,18.707095,28.322879999999998Q18.642106,28.35762,18.574025,28.385820000000002Q18.505944,28.41402,18.435427,28.435409999999997Q18.36491,28.4568,18.292635,28.47118Q18.220361,28.48555,18.147026,28.49278Q18.0736903,28.5,18,28.5Q17.9263097,28.5,17.852974,28.49278Q17.779639,28.48555,17.707365,28.47118Q17.63509,28.4568,17.564573,28.435409999999997Q17.494056,28.41402,17.425975,28.385820000000002Q17.357894,28.35762,17.292905,28.322879999999998Q17.227916,28.28814,17.166645,28.2472Q17.105373,28.20626,17.04841,28.15952Q16.99145,28.112769999999998,16.93934,28.06066Q16.88723,28.00855,16.84048,27.95159Q16.79374,27.89463,16.7528,27.83335Q16.71186,27.77208,16.67712,27.70709Q16.64238,27.64211,16.61418,27.57402Q16.58598,27.50594,16.56459,27.43543Q16.5432,27.364910000000002,16.52882,27.29263Q16.51445,27.22036,16.50722,27.14703Q16.5,27.07369,16.5,27L16.5,20Z" fill-rule="evenodd" fill="#393F48" fill-opacity="1"/></g><g><path d="M11,28.5L18,28.5Q18.073700000000002,28.5,18.147,28.49278Q18.220399999999998,28.48555,18.2926,28.47118Q18.3649,28.4568,18.4354,28.43541Q18.5059,28.41402,18.573999999999998,28.38582Q18.6421,28.35762,18.7071,28.32288Q18.772100000000002,28.28814,18.833399999999997,28.2472Q18.8946,28.20626,18.9516,28.15952Q19.0086,28.11277,19.0607,28.06066Q19.1128,28.00855,19.1595,27.95159Q19.2063,27.894627,19.2472,27.833355Q19.2881,27.772084,19.3229,27.707095Q19.357599999999998,27.642106,19.3858,27.574025Q19.414,27.505944,19.4354,27.435427Q19.4568,27.36491,19.4712,27.292635Q19.485599999999998,27.220361,19.492800000000003,27.147026Q19.5,27.0736903,19.5,27Q19.5,26.9263097,19.492800000000003,26.852974Q19.485599999999998,26.779639,19.4712,26.707365Q19.4568,26.63509,19.4354,26.564573Q19.414,26.494056,19.3858,26.425975Q19.357599999999998,26.357894,19.3229,26.292905Q19.2881,26.227916,19.2472,26.166645Q19.2063,26.105373,19.1595,26.04841Q19.1128,25.99145,19.0607,25.93934Q19.0086,25.88723,18.9516,25.84048Q18.8946,25.79374,18.833399999999997,25.7528Q18.772100000000002,25.71186,18.7071,25.67712Q18.6421,25.64238,18.573999999999998,25.61418Q18.5059,25.58598,18.4354,25.56459Q18.3649,25.5432,18.2926,25.52882Q18.220399999999998,25.51445,18.147,25.50722Q18.073700000000002,25.5,18,25.5L4,25.5L4,28.5L11,28.5Z" fill-rule="evenodd" fill="#393F48" fill-opacity="1"/></g><g><path d="M15.2481,5.83205Q15.3713,5.647249,15.4356,5.434676Q15.5,5.222103,15.5,5Q15.5,4.9263097,15.4928,4.852974Q15.4856,4.779639,15.4712,4.707365Q15.4568,4.63509,15.4354,4.564573Q15.414,4.4940560000000005,15.3858,4.425975Q15.3576,4.357894,15.3229,4.292905Q15.2881,4.2279160000000005,15.2472,4.166645Q15.2063,4.105373,15.1595,4.04841Q15.1128,3.99145,15.0607,3.93934Q15.0086,3.8872299999999997,14.9516,3.84048Q14.8946,3.7937399999999997,14.8334,3.7527999999999997Q14.7721,3.7118599999999997,14.7071,3.67712Q14.6421,3.64238,14.574,3.61418Q14.5059,3.58598,14.4354,3.56459Q14.3649,3.5431999999999997,14.2926,3.52882Q14.2204,3.51445,14.147,3.5072200000000002Q14.0737,3.5,14,3.5Q13.81479,3.5,13.63515,3.54505Q13.4555,3.5901,13.29221,3.6774899999999997Q13.12892,3.76488,12.99179,3.88936Q12.85466,4.0138490000000004,12.75192,4.16795L2.75192,19.1679Q2.62872,19.352800000000002,2.5643599999999998,19.5653Q2.5,19.777900000000002,2.5,20Q2.5,20.073700000000002,2.5072200000000002,20.147Q2.51445,20.220399999999998,2.52882,20.2926Q2.5431999999999997,20.3649,2.56459,20.4354Q2.58598,20.5059,2.61418,20.573999999999998Q2.64238,20.6421,2.67712,20.7071Q2.7118599999999997,20.772100000000002,2.7527999999999997,20.833399999999997Q2.7937399999999997,20.8946,2.84048,20.9516Q2.8872299999999997,21.0086,2.93934,21.0607Q2.99145,21.1128,3.04841,21.1595Q3.105373,21.2063,3.166645,21.2472Q3.227916,21.2881,3.292905,21.3229Q3.357894,21.3576,3.425975,21.3858Q3.494056,21.414,3.564573,21.4354Q3.63509,21.4568,3.7073650000000002,21.4712Q3.779639,21.4856,3.852974,21.4928Q3.9263097,21.5,4,21.5Q4.185206,21.5,4.364851,21.455Q4.5444949999999995,21.4099,4.707787,21.3225Q4.871079,21.2351,5.00821,21.1106Q5.14534,20.9862,5.24808,20.8321L15.2481,5.83205L15.2481,5.83205ZM12.74808,16.5821Q12.87128,16.397199999999998,12.93564,16.1847Q13,15.9721,13,15.75Q13,15.6763,12.99278,15.603Q12.98555,15.5296,12.97118,15.4574Q12.9568,15.3851,12.93541,15.3146Q12.91402,15.2441,12.88582,15.176Q12.85762,15.1079,12.82288,15.0429Q12.78814,14.97792,12.7472,14.91664Q12.70626,14.85537,12.65952,14.79841Q12.61277,14.74145,12.56066,14.68934Q12.50855,14.63723,12.45159,14.59048Q12.39463,14.54374,12.33335,14.50279Q12.27208,14.46185,12.20709,14.42712Q12.14211,14.39238,12.07402,14.36418Q12.00594,14.33598,11.93543,14.31459Q11.86491,14.2932,11.792629999999999,14.27882Q11.72036,14.26445,11.64703,14.25722Q11.57369,14.25,11.5,14.25Q11.31479,14.25,11.13515,14.29505Q10.9555,14.3401,10.79221,14.42749Q10.62892,14.51488,10.49179,14.63936Q10.354659999999999,14.76385,10.25192,14.91795L6.50192,20.5429Q6.3787199999999995,20.727800000000002,6.314360000000001,20.9403Q6.25,21.1529,6.25,21.375Q6.25,21.4487,6.25722,21.522Q6.26445,21.5954,6.27882,21.6676Q6.293200000000001,21.7399,6.31459,21.8104Q6.33598,21.8809,6.36418,21.949Q6.39238,22.0171,6.42712,22.0821Q6.46186,22.1471,6.502800000000001,22.2084Q6.54374,22.2696,6.5904799999999994,22.3266Q6.637230000000001,22.3836,6.68934,22.4357Q6.74145,22.4878,6.7984100000000005,22.5345Q6.855370000000001,22.5813,6.91664,22.6222Q6.97792,22.6631,7.0428999999999995,22.6979Q7.107889999999999,22.7326,7.1759699999999995,22.7608Q7.24406,22.789,7.31457,22.8104Q7.38509,22.8318,7.4573599999999995,22.8462Q7.5296400000000006,22.8606,7.60297,22.8678Q7.67631,22.875,7.75,22.875Q7.93521,22.875,8.11485,22.83Q8.2945,22.7849,8.45779,22.6975Q8.62108,22.6101,8.75821,22.4856Q8.895340000000001,22.3612,8.99808,22.2071L12.74808,16.5821Z" fill-rule="evenodd" fill="#393F48" fill-opacity="1"/></g><g><path d="M29.2481,5.83205Q29.371299999999998,5.647249,29.4356,5.434676Q29.5,5.222103,29.5,5Q29.5,4.9263097,29.492800000000003,4.852974Q29.485599999999998,4.779639,29.4712,4.707365Q29.4568,4.63509,29.4354,4.564573Q29.414,4.4940560000000005,29.3858,4.425975Q29.357599999999998,4.357894,29.3229,4.292905Q29.2881,4.2279160000000005,29.2472,4.166645Q29.2063,4.105373,29.1595,4.04841Q29.1128,3.99145,29.0607,3.93934Q29.0086,3.8872299999999997,28.9516,3.84048Q28.8946,3.7937399999999997,28.833399999999997,3.7527999999999997Q28.772100000000002,3.7118599999999997,28.7071,3.67712Q28.6421,3.64238,28.573999999999998,3.61418Q28.5059,3.58598,28.4354,3.56459Q28.3649,3.5431999999999997,28.2926,3.52882Q28.220399999999998,3.51445,28.147,3.5072200000000002Q28.073700000000002,3.5,28,3.5Q27.814790000000002,3.5,27.63515,3.54505Q27.4555,3.5901,27.29221,3.6774899999999997Q27.12892,3.76488,26.99179,3.88936Q26.854660000000003,4.0138490000000004,26.75192,4.16795L16.75192,19.1679Q16.62872,19.352800000000002,16.56436,19.5653Q16.5,19.777900000000002,16.5,20Q16.5,20.073700000000002,16.50722,20.147Q16.51445,20.220399999999998,16.52882,20.2926Q16.5432,20.3649,16.56459,20.4354Q16.58598,20.5059,16.61418,20.573999999999998Q16.64238,20.6421,16.67712,20.7071Q16.71186,20.772100000000002,16.7528,20.833399999999997Q16.79374,20.8946,16.84048,20.9516Q16.88723,21.0086,16.93934,21.0607Q16.99145,21.1128,17.04841,21.1595Q17.105373,21.2063,17.166645,21.2472Q17.227916,21.2881,17.292905,21.3229Q17.357894,21.3576,17.425975,21.3858Q17.494056,21.414,17.564573,21.4354Q17.63509,21.4568,17.707365,21.4712Q17.779639,21.4856,17.852974,21.4928Q17.9263097,21.5,18,21.5Q18.185206,21.5,18.364851,21.455Q18.544495,21.4099,18.707787,21.3225Q18.871079,21.2351,19.00821,21.1106Q19.14534,20.9862,19.24808,20.8321L29.2481,5.83205L29.2481,5.83205ZM29.2481,12.832049999999999Q29.371299999999998,12.64725,29.4356,12.43468Q29.5,12.222100000000001,29.5,12Q29.5,11.92631,29.492800000000003,11.85297Q29.485599999999998,11.77964,29.4712,11.707360000000001Q29.4568,11.63509,29.4354,11.56457Q29.414,11.494060000000001,29.3858,11.42597Q29.357599999999998,11.357890000000001,29.3229,11.2929Q29.2881,11.227920000000001,29.2472,11.166640000000001Q29.2063,11.10537,29.1595,11.04841Q29.1128,10.99145,29.0607,10.93934Q29.0086,10.887229999999999,28.9516,10.84048Q28.8946,10.79374,28.833399999999997,10.7528Q28.772100000000002,10.71186,28.7071,10.67712Q28.6421,10.64238,28.573999999999998,10.614180000000001Q28.5059,10.58598,28.4354,10.564589999999999Q28.3649,10.543199999999999,28.2926,10.52882Q28.220399999999998,10.51445,28.147,10.50722Q28.073700000000002,10.5,28,10.5Q27.814790000000002,10.5,27.63515,10.54505Q27.4555,10.5901,27.29221,10.677489999999999Q27.12892,10.76488,26.99179,10.88936Q26.854660000000003,11.01385,26.75192,11.167950000000001L20.50192,20.5429Q20.37872,20.727800000000002,20.31436,20.9403Q20.25,21.1529,20.25,21.375Q20.25,21.4487,20.25722,21.522Q20.26445,21.5954,20.27882,21.6676Q20.2932,21.7399,20.31459,21.8104Q20.33598,21.8809,20.36418,21.949Q20.39238,22.0171,20.42712,22.0821Q20.46186,22.1471,20.5028,22.2084Q20.54374,22.2696,20.59048,22.3266Q20.63723,22.3836,20.68934,22.4357Q20.74145,22.4878,20.79841,22.5345Q20.85537,22.5813,20.91664,22.6222Q20.97792,22.6631,21.0429,22.6979Q21.10789,22.7326,21.17597,22.7608Q21.24406,22.789,21.31457,22.8104Q21.385089999999998,22.8318,21.45736,22.8462Q21.52964,22.8606,21.60297,22.8678Q21.67631,22.875,21.75,22.875Q21.93521,22.875,22.11485,22.83Q22.2945,22.7849,22.45779,22.6975Q22.62108,22.6101,22.75821,22.4856Q22.89534,22.3612,22.99808,22.2071L29.2481,12.832049999999999Z" fill-rule="evenodd" fill="#393F48" fill-opacity="1"/></g><g><path d="M14,10.5L19,10.5Q19.07369,10.5,19.14703,10.50722Q19.22036,10.51445,19.29263,10.52882Q19.364910000000002,10.5432,19.43543,10.564589999999999Q19.50594,10.58598,19.57402,10.61418Q19.64211,10.64238,19.70709,10.67712Q19.77208,10.71186,19.83335,10.7528Q19.89463,10.79374,19.95159,10.84048Q20.00855,10.88723,20.06066,10.93934Q20.11277,10.99145,20.15951,11.04841Q20.20626,11.105373,20.2472,11.166645Q20.28814,11.227916,20.322879999999998,11.292905Q20.35762,11.357894,20.38582,11.425975Q20.41402,11.494056,20.43541,11.564573Q20.4568,11.63509,20.47118,11.707365Q20.48555,11.779639,20.49278,11.852974Q20.5,11.9263097,20.5,12Q20.5,12.0736903,20.49278,12.147026Q20.48555,12.220361,20.47118,12.292635Q20.4568,12.36491,20.43541,12.435427Q20.41402,12.505944,20.38582,12.574025Q20.35762,12.642106,20.322879999999998,12.707095Q20.28814,12.772084,20.2472,12.833355Q20.20626,12.894627,20.15951,12.95159Q20.11277,13.00855,20.06066,13.06066Q20.00855,13.11277,19.95159,13.15952Q19.89463,13.20626,19.83335,13.2472Q19.77208,13.28814,19.70709,13.32288Q19.64211,13.35762,19.57402,13.38582Q19.50594,13.41402,19.43543,13.435410000000001Q19.364910000000002,13.4568,19.29263,13.47118Q19.22036,13.48555,19.14703,13.49278Q19.07369,13.5,19,13.5L14,13.5Q13.9263097,13.5,13.852974,13.49278Q13.779639,13.48555,13.707365,13.47118Q13.63509,13.4568,13.564573,13.435410000000001Q13.494056,13.41402,13.425975,13.38582Q13.357894,13.35762,13.292905,13.32288Q13.227916,13.28814,13.166645,13.2472Q13.105373,13.20626,13.04841,13.15952Q12.99145,13.11277,12.93934,13.06066Q12.88723,13.00855,12.84048,12.95159Q12.79374,12.894627,12.7528,12.833355Q12.71186,12.772084,12.67712,12.707095Q12.64238,12.642106,12.61418,12.574025Q12.58598,12.505944,12.564589999999999,12.435427Q12.5432,12.36491,12.52882,12.292635Q12.51445,12.220361,12.50722,12.147026Q12.5,12.0736903,12.5,12Q12.5,11.9263097,12.50722,11.852974Q12.51445,11.779639,12.52882,11.707365Q12.5432,11.63509,12.564589999999999,11.564573Q12.58598,11.494056,12.61418,11.425975Q12.64238,11.357894,12.67712,11.292905Q12.71186,11.227916,12.7528,11.166645Q12.79374,11.105373,12.84048,11.04841Q12.88723,10.99145,12.93934,10.93934Q12.99145,10.88723,13.04841,10.84048Q13.105373,10.79374,13.166645,10.7528Q13.227916,10.71186,13.292905,10.67712Q13.357894,10.64238,13.425975,10.61418Q13.494056,10.58598,13.564573,10.564589999999999Q13.63509,10.5432,13.707365,10.52882Q13.779639,10.51445,13.852974,10.50722Q13.9263097,10.5,14,10.5Z" fill-rule="evenodd" fill="#393F48" fill-opacity="1"/></g><g><path d="M2.5,20Q2.5,19.9263097,2.5072200000000002,19.852974Q2.51445,19.779639,2.52882,19.707365Q2.5431999999999997,19.63509,2.56459,19.564573Q2.58598,19.494056,2.61418,19.425975Q2.64238,19.357894,2.67712,19.292905Q2.7118599999999997,19.227916,2.7527999999999997,19.166645Q2.7937399999999997,19.105373,2.84048,19.04841Q2.8872299999999997,18.99145,2.93934,18.93934Q2.99145,18.88723,3.04841,18.84048Q3.105373,18.79374,3.166645,18.7528Q3.227916,18.71186,3.292905,18.67712Q3.357894,18.64238,3.425975,18.61418Q3.494056,18.58598,3.564573,18.56459Q3.63509,18.5432,3.7073650000000002,18.52882Q3.779639,18.51445,3.852974,18.50722Q3.9263097,18.5,4,18.5Q4.0736903,18.5,4.147026,18.50722Q4.220361,18.51445,4.292635,18.52882Q4.36491,18.5432,4.435427,18.56459Q4.5059439999999995,18.58598,4.574025,18.61418Q4.642106,18.64238,4.707095,18.67712Q4.7720839999999995,18.71186,4.833355,18.7528Q4.894627,18.79374,4.95159,18.84048Q5.00855,18.88723,5.06066,18.93934Q5.11277,18.99145,5.1595200000000006,19.04841Q5.20626,19.105373,5.2472,19.166645Q5.28814,19.227916,5.32288,19.292905Q5.35762,19.357894,5.38582,19.425975Q5.41402,19.494056,5.43541,19.564573Q5.4568,19.63509,5.47118,19.707365Q5.48555,19.779639,5.49278,19.852974Q5.5,19.9263097,5.5,20L5.5,27Q5.5,27.07369,5.49278,27.14703Q5.48555,27.22036,5.47118,27.29263Q5.4568,27.364910000000002,5.43541,27.43543Q5.41402,27.50594,5.38582,27.57402Q5.35762,27.64211,5.32288,27.70709Q5.28814,27.77208,5.2472,27.83335Q5.20626,27.89463,5.1595200000000006,27.95159Q5.11277,28.00855,5.06066,28.06066Q5.00855,28.112769999999998,4.95159,28.15952Q4.894627,28.20626,4.833355,28.2472Q4.7720839999999995,28.28814,4.707095,28.322879999999998Q4.642106,28.35762,4.574025,28.385820000000002Q4.5059439999999995,28.41402,4.435427,28.435409999999997Q4.36491,28.4568,4.292635,28.47118Q4.220361,28.48555,4.147026,28.49278Q4.0736903,28.5,4,28.5Q3.9263097,28.5,3.852974,28.49278Q3.779639,28.48555,3.7073650000000002,28.47118Q3.63509,28.4568,3.564573,28.435409999999997Q3.494056,28.41402,3.425975,28.385820000000002Q3.357894,28.35762,3.292905,28.322879999999998Q3.227916,28.28814,3.166645,28.2472Q3.105373,28.20626,3.04841,28.15952Q2.99145,28.112769999999998,2.93934,28.06066Q2.8872299999999997,28.00855,2.84048,27.95159Q2.7937399999999997,27.89463,2.7527999999999997,27.83335Q2.7118599999999997,27.77208,2.67712,27.70709Q2.64238,27.64211,2.61418,27.57402Q2.58598,27.50594,2.56459,27.43543Q2.5431999999999997,27.364910000000002,2.52882,27.29263Q2.51445,27.22036,2.5072200000000002,27.14703Q2.5,27.07369,2.5,27L2.5,20Z" fill-rule="evenodd" fill="#393F48" fill-opacity="1"/></g><g><path d="M12.5,5Q12.5,4.9263097,12.50722,4.852974Q12.51445,4.779639,12.52882,4.707365Q12.5432,4.63509,12.564589999999999,4.564573Q12.58598,4.4940560000000005,12.61418,4.425975Q12.64238,4.357894,12.67712,4.292905Q12.71186,4.2279160000000005,12.7528,4.166645Q12.79374,4.105373,12.84048,4.04841Q12.88723,3.99145,12.93934,3.93934Q12.99145,3.8872299999999997,13.04841,3.84048Q13.105373,3.7937399999999997,13.166645,3.7527999999999997Q13.227916,3.7118599999999997,13.292905,3.67712Q13.357894,3.64238,13.425975,3.61418Q13.494056,3.58598,13.564573,3.56459Q13.63509,3.5431999999999997,13.707365,3.52882Q13.779639,3.51445,13.852974,3.5072200000000002Q13.9263097,3.5,14,3.5Q14.0736903,3.5,14.147026,3.5072200000000002Q14.220361,3.51445,14.292635,3.52882Q14.36491,3.5431999999999997,14.435427,3.56459Q14.505944,3.58598,14.574025,3.61418Q14.642106,3.64238,14.707095,3.67712Q14.772084,3.7118599999999997,14.833355,3.7527999999999997Q14.894627,3.7937399999999997,14.95159,3.84048Q15.00855,3.8872299999999997,15.06066,3.93934Q15.11277,3.99145,15.15952,4.04841Q15.20626,4.105373,15.2472,4.166645Q15.28814,4.2279160000000005,15.32288,4.292905Q15.35762,4.357894,15.38582,4.425975Q15.41402,4.4940560000000005,15.435410000000001,4.564573Q15.4568,4.63509,15.47118,4.707365Q15.48555,4.779639,15.49278,4.852974Q15.5,4.9263097,15.5,5L15.5,12Q15.5,12.07369,15.49278,12.14703Q15.48555,12.22036,15.47118,12.292629999999999Q15.4568,12.36491,15.435410000000001,12.43543Q15.41402,12.505939999999999,15.38582,12.57402Q15.35762,12.642109999999999,15.32288,12.70709Q15.28814,12.772079999999999,15.2472,12.83335Q15.20626,12.89463,15.15952,12.95159Q15.11277,13.00855,15.06066,13.06066Q15.00855,13.11277,14.95159,13.15952Q14.894627,13.20626,14.833355,13.2472Q14.772084,13.28814,14.707095,13.32288Q14.642106,13.35762,14.574025,13.38582Q14.505944,13.41402,14.435427,13.43541Q14.36491,13.4568,14.292635,13.47118Q14.220361,13.48555,14.147026,13.49278Q14.0736903,13.5,14,13.5Q13.9263097,13.5,13.852974,13.49278Q13.779639,13.48555,13.707365,13.47118Q13.63509,13.4568,13.564573,13.43541Q13.494056,13.41402,13.425975,13.38582Q13.357894,13.35762,13.292905,13.32288Q13.227916,13.28814,13.166645,13.2472Q13.105373,13.20626,13.04841,13.15952Q12.99145,13.11277,12.93934,13.06066Q12.88723,13.00855,12.84048,12.95159Q12.79374,12.89463,12.7528,12.83335Q12.71186,12.772079999999999,12.67712,12.70709Q12.64238,12.642109999999999,12.61418,12.57402Q12.58598,12.505939999999999,12.564589999999999,12.43543Q12.5432,12.36491,12.52882,12.292629999999999Q12.51445,12.22036,12.50722,12.14703Q12.5,12.07369,12.5,12L12.5,5Z" fill-rule="evenodd" fill="#393F48" fill-opacity="1"/></g><g><path d="M26.5,5Q26.5,4.9263097,26.50722,4.852974Q26.51445,4.779639,26.52882,4.707365Q26.5432,4.63509,26.56459,4.564573Q26.58598,4.4940560000000005,26.61418,4.425975Q26.64238,4.357894,26.67712,4.292905Q26.71186,4.2279160000000005,26.7528,4.166645Q26.79374,4.105373,26.84048,4.04841Q26.88723,3.99145,26.93934,3.93934Q26.99145,3.8872299999999997,27.04841,3.84048Q27.105373,3.7937399999999997,27.166645,3.7527999999999997Q27.227916,3.7118599999999997,27.292905,3.67712Q27.357894,3.64238,27.425975,3.61418Q27.494056,3.58598,27.564573,3.56459Q27.63509,3.5431999999999997,27.707365,3.52882Q27.779639,3.51445,27.852974,3.5072200000000002Q27.9263097,3.5,28,3.5Q28.0736903,3.5,28.147026,3.5072200000000002Q28.220361,3.51445,28.292635,3.52882Q28.36491,3.5431999999999997,28.435427,3.56459Q28.505944,3.58598,28.574025,3.61418Q28.642106,3.64238,28.707095,3.67712Q28.772084,3.7118599999999997,28.833355,3.7527999999999997Q28.894627,3.7937399999999997,28.95159,3.84048Q29.00855,3.8872299999999997,29.06066,3.93934Q29.11277,3.99145,29.15952,4.04841Q29.20626,4.105373,29.2472,4.166645Q29.28814,4.2279160000000005,29.32288,4.292905Q29.35762,4.357894,29.38582,4.425975Q29.41402,4.4940560000000005,29.43541,4.564573Q29.4568,4.63509,29.47118,4.707365Q29.48555,4.779639,29.49278,4.852974Q29.5,4.9263097,29.5,5L29.5,12Q29.5,12.07369,29.49278,12.14703Q29.48555,12.22036,29.47118,12.292629999999999Q29.4568,12.36491,29.43541,12.43543Q29.41402,12.505939999999999,29.38582,12.57402Q29.35762,12.642109999999999,29.32288,12.70709Q29.28814,12.772079999999999,29.2472,12.83335Q29.20626,12.89463,29.15952,12.95159Q29.11277,13.00855,29.06066,13.06066Q29.00855,13.11277,28.95159,13.15952Q28.894627,13.20626,28.833355,13.2472Q28.772084,13.28814,28.707095,13.32288Q28.642106,13.35762,28.574025,13.38582Q28.505944,13.41402,28.435427,13.43541Q28.36491,13.4568,28.292635,13.47118Q28.220361,13.48555,28.147026,13.49278Q28.0736903,13.5,28,13.5Q27.9263097,13.5,27.852974,13.49278Q27.779639,13.48555,27.707365,13.47118Q27.63509,13.4568,27.564573,13.43541Q27.494056,13.41402,27.425975,13.38582Q27.357894,13.35762,27.292905,13.32288Q27.227916,13.28814,27.166645,13.2472Q27.105373,13.20626,27.04841,13.15952Q26.99145,13.11277,26.93934,13.06066Q26.88723,13.00855,26.84048,12.95159Q26.79374,12.89463,26.7528,12.83335Q26.71186,12.772079999999999,26.67712,12.70709Q26.64238,12.642109999999999,26.61418,12.57402Q26.58598,12.505939999999999,26.56459,12.43543Q26.5432,12.36491,26.52882,12.292629999999999Q26.51445,12.22036,26.50722,12.14703Q26.5,12.07369,26.5,12L26.5,5Z" fill-rule="evenodd" fill="#393F48" fill-opacity="1"/></g></g></svg>